<svg width="22" height="19" xmlns="http://www.w3.org/2000/svg" version="1.2">
 <title>main-icon</title>

 <g>
  <title>Layer 1</title>
  <path fill="#8892b0" d="m0,4.8c0,-1.1 0.9,-2 2,-2l11.3,0c1.1,0 2,0.9 2,2l0,9.3c0,1.1 -0.9,2 -2,2l-11.3,0c-1.1,0 -2,-0.9 -2,-2l0,-9.3zm2.2,-0.8q-0.1,0 -0.3,0l4.6,5.8c0.3,0.4 0.7,0.6 1.1,0.6c0.5,0 0.9,-0.2 1.2,-0.6l4.6,-5.8q-0.2,0 -0.3,0l-10.9,0zm12,1.3q0,-0.3 0,-0.5l-4.6,5.8c-0.5,0.6 -1.2,0.9 -2,0.9c-0.7,0 -1.4,-0.3 -1.9,-0.9l-4.6,-5.8q-0.1,0.2 -0.1,0.5l0,8.4c0,0.7 0.6,1.3 1.2,1.3l10.9,0c0.6,0 1.1,-0.6 1.1,-1.3l0,-8.4z" class="s0" fill-rule="evenodd" id="&lt;Compound Path&gt;"/>
 </g>
</svg>