<svg width="22" height="19" xmlns="http://www.w3.org/2000/svg" version="1.2">
 <title>&lt;Compound Path&gt;</title>

 <g>
  <title>Layer 1</title>
  <path fill="#64ffda" d="m14.3,15.6c0,1.2 -1,2.2 -2.2,2.2l-9.1,0c-1.2,0 -2.2,-1 -2.2,-2.2c0,-2.9 1.8,-5.4 4.4,-6.4c-1.3,-0.8 -2.1,-2.2 -2.1,-3.8c0,-2.5 2,-4.6 4.5,-4.6c2.4,0 4.4,2.1 4.4,4.6c0,1.6 -0.8,3 -2,3.8c2.5,1 4.3,3.5 4.3,6.4zm-3.4,-10.2c0,-1.9 -1.5,-3.4 -3.3,-3.4c-1.9,0 -3.3,1.5 -3.3,3.4c0,1.8 1.4,3.3 3.3,3.3c1.8,0 3.3,-1.5 3.3,-3.3zm2.3,10.2c0,-3.1 -2.5,-5.7 -5.6,-5.7c-3.1,0 -5.6,2.6 -5.6,5.7c0,0.6 0.5,1 1,1l9.1,0c0.6,0 1.1,-0.4 1.1,-1z" class="s0" fill-rule="evenodd" id="&lt;Compound Path&gt;"/>
 </g>
</svg>